<?xml version="1.0" encoding="UTF-8" standalone="no"?>
<svg
   viewBox="0 0 512 512"
   version="1.1"
   id="svg1"
   sodipodi:docname="beer-mug-empty.svg"
   inkscape:version="1.3.2 (091e20e, 2023-11-25)"
   xmlns:inkscape="http://www.inkscape.org/namespaces/inkscape"
   xmlns:sodipodi="http://sodipodi.sourceforge.net/DTD/sodipodi-0.dtd"
   xmlns="http://www.w3.org/2000/svg"
   xmlns:svg="http://www.w3.org/2000/svg">
  <defs
     id="defs1" />
  <sodipodi:namedview
     id="namedview1"
     pagecolor="#ffffff"
     bordercolor="#000000"
     borderopacity="0.25"
     inkscape:showpageshadow="2"
     inkscape:pageopacity="0.0"
     inkscape:pagecheckerboard="0"
     inkscape:deskcolor="#d1d1d1"
     inkscape:zoom="0.4609375"
     inkscape:cx="256"
     inkscape:cy="254.91525"
     inkscape:window-width="1512"
     inkscape:window-height="916"
     inkscape:window-x="0"
     inkscape:window-y="38"
     inkscape:window-maximized="0"
     inkscape:current-layer="svg1" />
  <!--! Font Awesome Free 6.5.2 by @fontawesome - https://fontawesome.com License - https://fontawesome.com/license/free (Icons: CC BY 4.0, Fonts: SIL OFL 1.1, Code: MIT License) Copyright 2024 Fonticons, Inc. -->
  <path
     d="M 20,64 C 20,46.3 34.3,32 52,32 h 288 c 17.7,0 32,14.3 32,32 v 32 h 51.2 c 42.4,0 76.8,34.4 76.8,76.8 v 102.1 c 0,30.4 -17.9,57.9 -45.6,70.2 L 372,381.7 V 416 c 0,35.3 -28.7,64 -64,64 H 84 C 48.7,480 20,451.3 20,416 Z m 352,247.6 56.4,-25.1 c 4.6,-2.1 7.6,-6.6 7.6,-11.7 v -102 C 436,165.7 430.3,160 423.2,160 H 372 Z M 148,144 c 0,-8.8 -7.2,-16 -16,-16 -8.8,0 -16,7.2 -16,16 v 224 c 0,8.8 7.2,16 16,16 8.8,0 16,-7.2 16,-16 z m 64,0 c 0,-8.8 -7.2,-16 -16,-16 -8.8,0 -16,7.2 -16,16 v 224 c 0,8.8 7.2,16 16,16 8.8,0 16,-7.2 16,-16 z m 64,0 c 0,-8.8 -7.2,-16 -16,-16 -8.8,0 -16,7.2 -16,16 v 224 c 0,8.8 7.2,16 16,16 8.8,0 16,-7.2 16,-16 z"
     id="path1"
     style="fill:#d78f09;fill-opacity:1" />
</svg>
