<?xml version="1.0" encoding="UTF-8" standalone="no"?>
<svg
   viewBox="0 0 512 512"
   version="1.1"
   id="svg1"
   sodipodi:docname="favicon-src.svg"
   inkscape:version="1.3.2 (091e20e, 2023-11-25)"
   xmlns:inkscape="http://www.inkscape.org/namespaces/inkscape"
   xmlns:sodipodi="http://sodipodi.sourceforge.net/DTD/sodipodi-0.dtd"
   xmlns="http://www.w3.org/2000/svg"
   xmlns:svg="http://www.w3.org/2000/svg">
  <defs
     id="defs1" />
  <sodipodi:namedview
     id="namedview1"
     pagecolor="#ffffff"
     bordercolor="#000000"
     borderopacity="0.25"
     inkscape:showpageshadow="2"
     inkscape:pageopacity="0.0"
     inkscape:pagecheckerboard="0"
     inkscape:deskcolor="#d1d1d1"
     inkscape:zoom="0.9937422"
     inkscape:cx="252.07745"
     inkscape:cy="255.09634"
     inkscape:window-width="1512"
     inkscape:window-height="916"
     inkscape:window-x="0"
     inkscape:window-y="38"
     inkscape:window-maximized="0"
     inkscape:current-layer="svg1" />
  <!--! Font Awesome Free 6.5.2 by @fontawesome - https://fontawesome.com License - https://fontawesome.com/license/free (Icons: CC BY 4.0, Fonts: SIL OFL 1.1, Code: MIT License) Copyright 2024 Fonticons, Inc. -->
  <path
     d="m 455.7948,99.364159 c 0,-14.439867 -11.66611,-26.105974 -26.10597,-26.105974 H 194.73507 c -14.43987,0 -26.10598,11.666107 -26.10598,26.105974 v 26.105971 h -41.76955 c -34.590421,0 -62.654341,28.06392 -62.654341,62.65434 v 83.29437 c 0,24.80068 14.60303,47.2355 37.201011,57.26998 l 67.22288,29.85871 v 27.98234 c 0,28.79815 23.4138,52.21194 52.21195,52.21194 h 182.74181 c 28.79815,0 52.21195,-23.41379 52.21195,-52.21194 z M 168.62909,301.35913 122.61731,280.88226 c -3.75273,-1.71321 -6.20016,-5.38436 -6.20016,-9.545 v -83.21279 c 0,-5.79226 4.65012,-10.44239 10.44239,-10.44239 h 41.76955 z M 351.37091,164.62909 c 0,-7.17914 5.87384,-13.05298 13.05298,-13.05298 7.17915,0 13.05299,5.87384 13.05299,13.05298 v 182.74182 c 0,7.17914 -5.87384,13.05298 -13.05299,13.05298 -7.17914,0 -13.05298,-5.87384 -13.05298,-13.05298 z m -52.21195,0 c 0,-7.17914 5.87384,-13.05298 13.05299,-13.05298 7.17914,0 13.05298,5.87384 13.05298,13.05298 v 182.74182 c 0,7.17914 -5.87384,13.05298 -13.05298,13.05298 -7.17915,0 -13.05299,-5.87384 -13.05299,-13.05298 z m -52.21195,0 c 0,-7.17914 5.87385,-13.05298 13.05299,-13.05298 7.17914,0 13.05299,5.87384 13.05299,13.05298 v 182.74182 c 0,7.17914 -5.87385,13.05298 -13.05299,13.05298 -7.17914,0 -13.05299,-5.87384 -13.05299,-13.05298 z"
     id="path1"
     style="fill:#d78f09;fill-opacity:1;stroke-width:0.815812" />
</svg>
